<?xml version="1.0" standalone="no"?>
<!DOCTYPE svg PUBLIC "-//W3C//DTD SVG 20010904//EN"
        "http://www.w3.org/TR/2001/REC-SVG-20010904/DTD/svg10.dtd">
<svg version="1.0" xmlns="http://www.w3.org/2000/svg"
     width="225.000000pt" height="225.000000pt" viewBox="0 0 225.000000 225.000000"
     preserveAspectRatio="xMidYMid meet">
    <metadata>
        Created by potrace 1.14, written by Peter Selinger 2001-2017
    </metadata>
    <g transform="translate(0.000000,225.000000) scale(0.100000,-0.100000)"
       fill="#000000" stroke="none">
        <path d="M1044 2236 c-103 -33 -165 -116 -172 -230 -3 -64 -1 -77 25 -126 17
-32 47 -68 73 -89 25 -18 45 -38 45 -43 0 -11 -36 -25 -520 -199 -267 -96
-293 -107 -332 -146 -95 -94 -92 -244 6 -337 l31 -30 0 -257 c0 -269 3 -289
44 -273 14 5 16 39 16 311 l0 305 29 29 29 29 807 0 807 0 29 -29 29 -29 0
-491 c0 -300 -4 -500 -10 -516 -18 -46 -60 -55 -260 -55 -152 0 -182 -2 -186
-15 -4 -8 -1 -22 6 -30 10 -12 47 -15 204 -15 215 0 242 7 283 69 l23 34 0
467 0 466 31 30 c98 93 101 243 6 337 -40 40 -65 51 -442 186 -220 79 -406
146 -412 149 -9 3 -13 26 -13 67 0 79 -29 121 -91 131 -44 7 -61 24 -61 59 0
66 59 74 113 15 32 -35 42 -40 82 -40 38 0 49 5 71 31 43 51 34 99 -33 172
-57 63 -172 91 -257 63z m166 -76 c65 -33 104 -111 64 -127 -11 -4 -28 8 -53
34 -60 66 -136 69 -191 7 -63 -72 -23 -182 73 -201 l42 -9 3 -76 c2 -56 7 -79
20 -90 9 -8 202 -81 429 -162 346 -125 416 -153 442 -180 53 -55 66 -131 32
-194 l-17 -33 -14 28 c-8 15 -14 49 -15 75 -1 81 -5 83 -464 249 -226 82 -422
149 -436 149 -13 0 -209 -67 -436 -149 -455 -165 -463 -169 -464 -244 -1 -24
-7 -58 -15 -76 l-13 -33 -18 33 c-34 64 -21 139 32 195 26 26 96 55 442 179
227 82 418 153 425 158 8 7 12 28 10 61 -3 45 -6 52 -33 65 -74 34 -118 99
-118 176 0 75 47 148 113 174 42 17 118 13 160 -9z m430 -777 c162 -59 301
-111 308 -116 40 -31 11 -32 -823 -32 -835 0 -870 1 -822 32 6 4 194 74 417
154 l405 147 110 -40 c60 -21 243 -87 405 -145z"/>
        <path d="M404 936 c-34 -15 -44 -33 -44 -76 0 -26 32 -70 51 -70 3 0 23 -7 42
-15 25 -10 35 -20 31 -30 -8 -20 -45 -19 -83 2 -28 17 -32 17 -47 2 -24 -24
-4 -54 50 -74 37 -14 50 -15 80 -5 58 19 82 72 55 122 -6 11 -35 31 -65 44
-30 13 -52 29 -49 34 8 13 41 13 64 -2 44 -27 72 28 28 57 -35 22 -78 27 -113
11z"/>
        <path d="M618 939 c-16 -9 -18 -26 -18 -134 0 -113 2 -125 19 -135 29 -15 104
-12 127 4 28 22 7 50 -40 54 -27 2 -36 8 -36 22 0 14 8 20 31 22 63 6 61 68
-2 68 -22 0 -29 5 -29 19 0 15 8 20 36 23 47 4 68 32 40 54 -23 16 -102 18
-128 3z"/>
        <path d="M881 928 c-112 -58 -104 -209 14 -253 66 -26 145 2 145 51 0 32 -24
40 -55 20 -68 -45 -142 16 -110 91 18 42 70 57 115 33 14 -7 23 -6 34 6 22 21
20 31 -8 49 -42 28 -87 28 -135 3z"/>
        <path d="M1175 940 c-17 -5 -44 -23 -60 -40 -27 -28 -30 -38 -30 -95 0 -57 3
-67 30 -95 105 -110 280 -6 236 141 -21 68 -104 110 -176 89z m84 -70 c10 -5
24 -22 30 -39 10 -24 10 -34 -3 -59 -16 -32 -34 -42 -72 -42 -33 0 -74 42 -74
75 0 53 70 92 119 65z"/>
        <path d="M1432 938 c-8 -8 -12 -53 -12 -139 0 -108 2 -128 16 -133 29 -11 43
13 46 77 l3 62 48 -68 c49 -68 73 -81 97 -52 18 22 3 252 -18 260 -28 10 -42
-15 -43 -79 l0 -61 -22 29 c-12 16 -35 47 -52 69 -34 46 -46 52 -63 35z"/>
        <path d="M1699 918 c-11 -21 -6 -219 7 -240 3 -4 32 -8 64 -8 51 0 64 4 90 28
61 54 60 165 -1 216 -25 22 -41 26 -89 26 -51 0 -61 -3 -71 -22z m125 -60 c34
-48 9 -128 -40 -128 -23 0 -24 2 -24 75 0 73 1 75 24 75 14 0 32 -10 40 -22z"/>
        <path d="M605 568 c-3 -8 -4 -70 -3 -139 l3 -124 25 0 c23 0 25 4 28 53 l3 52
44 0 44 0 3 -52 c3 -49 5 -53 28 -53 l25 0 0 135 0 135 -25 0 c-23 0 -25 -4
-28 -47 l-3 -48 -44 0 -44 0 -3 48 c-3 40 -6 47 -26 50 -12 2 -24 -3 -27 -10z"/>
        <path d="M963 568 c-20 -26 -95 -239 -89 -253 8 -22 44 -18 58 5 10 15 24 20
58 20 34 0 48 -5 58 -20 15 -24 47 -26 56 -4 6 15 -66 224 -87 252 -5 6 -17
12 -27 12 -10 0 -22 -6 -27 -12z m41 -134 c10 -26 7 -34 -14 -34 -11 0 -20 4
-20 9 0 17 12 41 20 41 4 0 11 -7 14 -16z"/>
        <path d="M1172 568 c-13 -13 -18 -222 -6 -252 3 -9 17 -16 30 -16 26 0 32 14
36 89 l3 43 47 -66 c77 -106 98 -91 98 74 0 122 -6 144 -36 138 -16 -3 -20
-15 -24 -73 l-5 -70 -53 73 c-52 72 -68 82 -90 60z"/>
        <path d="M1452 568 c-8 -8 -12 -51 -12 -128 0 -77 4 -120 12 -128 17 -17 94
-15 133 4 87 41 87 207 0 248 -39 19 -116 21 -133 4z m122 -80 c33 -46 8 -118
-40 -118 -23 0 -24 2 -24 70 0 68 1 70 24 70 14 0 32 -10 40 -22z"/>
        <path d="M207 404 c-4 -4 -7 -73 -7 -154 0 -136 2 -150 23 -181 47 -71 27 -69
652 -67 l560 3 0 25 0 25 -555 5 c-510 5 -558 6 -583 23 -15 9 -28 18 -29 20
0 1 -4 70 -7 152 -6 141 -7 150 -26 153 -12 2 -24 0 -28 -4z"/>
    </g>
</svg>
